<?xml version="1.0" encoding="utf-8"?>
<!-- Generator: Adobe Illustrator 27.0.0, SVG Export Plug-In . SVG Version: 6.00 Build 0)  -->
<svg version="1.1" id="Calque_1" xmlns="http://www.w3.org/2000/svg" xmlns:xlink="http://www.w3.org/1999/xlink" x="0px" y="0px"
	 viewBox="0 0 425.2 372.64" style="enable-background:new 0 0 425.2 372.64;" xml:space="preserve">
<style type="text/css">
	.st0{fill:#1F3D81;}
	.st1{fill-rule:evenodd;clip-rule:evenodd;fill:#1F3D81;}
	.st2{fill-rule:evenodd;clip-rule:evenodd;fill:#E41D20;}
	.st3{fill:none;stroke:#9FA6BD;stroke-width:3;stroke-linecap:round;stroke-linejoin:round;stroke-miterlimit:10;}
	.st4{clip-path:url(#SVGID_00000157282418560061320640000012833750117728809107_);}
	.st5{clip-path:url(#SVGID_00000057847486261862509930000004129072273082741381_);}
	.st6{clip-path:url(#SVGID_00000091007387922067078520000015009948178163315370_);}
	.st7{fill:none;stroke:#010202;stroke-width:8.5;stroke-miterlimit:10;}
	.st8{fill:#FFFFFF;}
	.st9{fill:#010202;}
	.st10{fill:#DF0918;}
	.st11{fill:#263372;}
	.st12{fill:none;stroke:#010202;stroke-width:8;stroke-miterlimit:10;}
	.st13{fill:none;stroke:#010202;stroke-width:2;stroke-miterlimit:10;}
	.st14{fill:#203C83;}
	.st15{fill:#E41D20;}
	.st16{fill:none;stroke:#203C83;stroke-width:8;stroke-linecap:round;stroke-linejoin:round;stroke-miterlimit:10;}
	.st17{fill:none;stroke:#010202;stroke-width:4;stroke-miterlimit:10;}
	.st18{fill:none;stroke:#E41D20;stroke-width:6;stroke-miterlimit:10;}
	.st19{fill:none;stroke:#E41D20;stroke-width:6;stroke-linecap:round;stroke-linejoin:round;stroke-miterlimit:10;}
	.st20{fill:none;stroke:#1F3D81;stroke-width:6;stroke-miterlimit:10;}
	.st21{fill-rule:evenodd;clip-rule:evenodd;fill:none;stroke:#E41D20;stroke-width:6;stroke-miterlimit:10;}
	.st22{fill:none;stroke:#1F3D81;stroke-width:8;stroke-linecap:round;stroke-linejoin:round;stroke-miterlimit:10;}
	.st23{fill-rule:evenodd;clip-rule:evenodd;fill:none;stroke:#E41D20;stroke-width:8;stroke-linejoin:round;stroke-miterlimit:10;}
	.st24{fill-rule:evenodd;clip-rule:evenodd;fill:none;stroke:#1F3D81;stroke-width:6;stroke-miterlimit:10;}
	.st25{fill-rule:evenodd;clip-rule:evenodd;fill:none;stroke:#E41D20;stroke-width:8;stroke-miterlimit:10;}
	.st26{fill:none;stroke:#E41D20;stroke-width:8;stroke-linecap:round;stroke-linejoin:round;stroke-miterlimit:10;}
	.st27{fill:none;stroke:#1F3D81;stroke-width:6;stroke-linecap:round;stroke-linejoin:round;stroke-miterlimit:10;}
	
		.st28{fill-rule:evenodd;clip-rule:evenodd;fill:none;stroke:#1F3D81;stroke-width:8;stroke-linecap:round;stroke-linejoin:round;stroke-miterlimit:10;}
	.st29{fill:#FFFFFF;stroke:#E41D20;stroke-width:8;stroke-linejoin:round;stroke-miterlimit:10;}
	.st30{fill:#1F3D81;stroke:#1F3D81;stroke-width:2;stroke-miterlimit:10;}
	
		.st31{fill-rule:evenodd;clip-rule:evenodd;fill:none;stroke:#1F3D81;stroke-width:6;stroke-linecap:round;stroke-linejoin:round;stroke-miterlimit:10;}
	.st32{fill:none;stroke:#1F3D81;stroke-width:8;stroke-linejoin:round;stroke-miterlimit:10;}
	.st33{fill:none;stroke:#1F3D81;stroke-width:16;stroke-linecap:round;stroke-linejoin:round;stroke-miterlimit:10;}
	.st34{fill:none;stroke:#E41F21;stroke-width:16;stroke-linecap:round;stroke-linejoin:round;stroke-miterlimit:10;}
	.st35{fill:none;stroke:#414244;stroke-width:8;stroke-linecap:round;stroke-linejoin:round;stroke-miterlimit:10;}
	.st36{fill:none;stroke:#8E8889;stroke-width:8;stroke-linecap:round;stroke-linejoin:round;stroke-miterlimit:10;}
	.st37{fill:#8E8889;}
	.st38{fill:none;stroke:#E41D20;stroke-width:11;stroke-linecap:round;stroke-linejoin:round;stroke-miterlimit:10;}
	.st39{fill-rule:evenodd;clip-rule:evenodd;fill:none;stroke:#E41D20;stroke-width:11;stroke-miterlimit:10;}
	
		.st40{fill-rule:evenodd;clip-rule:evenodd;fill:none;stroke:#8E8889;stroke-width:8;stroke-linecap:round;stroke-linejoin:round;stroke-miterlimit:10;}
	.st41{fill:none;stroke:#1F3D81;stroke-width:10;stroke-linecap:round;stroke-linejoin:round;stroke-miterlimit:10;}
	.st42{fill:none;stroke:#8E8889;stroke-width:6;stroke-linecap:round;stroke-linejoin:round;stroke-miterlimit:10;}
	
		.st43{fill-rule:evenodd;clip-rule:evenodd;fill:none;stroke:#8E8889;stroke-width:6;stroke-linecap:round;stroke-linejoin:round;stroke-miterlimit:10;}
	.st44{fill:#FFFFFF;stroke:#E41D20;stroke-width:8;stroke-linecap:round;stroke-linejoin:round;stroke-miterlimit:10;}
	
		.st45{fill-rule:evenodd;clip-rule:evenodd;fill:#FFFFFF;stroke:#E41D20;stroke-width:8;stroke-linecap:round;stroke-linejoin:round;stroke-miterlimit:10;}
	.st46{fill:#FFFFFF;stroke:#1F3D81;stroke-width:6;stroke-linecap:round;stroke-linejoin:round;stroke-miterlimit:10;}
	.st47{fill:none;stroke:#414244;stroke-width:6;stroke-linecap:round;stroke-linejoin:round;stroke-miterlimit:10;}
	
		.st48{fill-rule:evenodd;clip-rule:evenodd;fill:none;stroke:#414244;stroke-width:6;stroke-linecap:round;stroke-linejoin:round;stroke-miterlimit:10;}
	.st49{fill:none;stroke:#1F3D81;stroke-width:5;stroke-linecap:round;stroke-linejoin:round;stroke-miterlimit:10;}
	
		.st50{fill-rule:evenodd;clip-rule:evenodd;fill:none;stroke:#1F3D81;stroke-width:5;stroke-linecap:round;stroke-linejoin:round;stroke-miterlimit:10;}
	.st51{fill:none;stroke:#1F3D81;stroke-width:5;stroke-linejoin:round;stroke-miterlimit:10;}
	.st52{fill:#414244;}
	.st53{fill:#FFFFFF;stroke:#1F3D81;stroke-width:5;stroke-linecap:round;stroke-linejoin:round;stroke-miterlimit:10;}
	.st54{fill:#FFFFFF;stroke:#E41F21;stroke-width:11;stroke-linecap:round;stroke-linejoin:round;stroke-miterlimit:10;}
	.st55{fill:none;stroke:#E41D20;stroke-width:5;stroke-linecap:round;stroke-linejoin:round;stroke-miterlimit:10;}
	.st56{fill:#FFFFFF;stroke:#E41D20;stroke-width:5;stroke-linejoin:round;stroke-miterlimit:10;}
	.st57{fill:#FFFFFF;stroke:#E41D20;stroke-width:5;stroke-linecap:round;stroke-linejoin:round;stroke-miterlimit:10;}
	
		.st58{fill-rule:evenodd;clip-rule:evenodd;fill:#FFFFFF;stroke:#E41D20;stroke-width:5;stroke-linecap:round;stroke-linejoin:round;stroke-miterlimit:10;}
	.st59{fill:none;stroke:#1F3D81;stroke-width:7;stroke-miterlimit:10;}
	.st60{fill-rule:evenodd;clip-rule:evenodd;fill:none;stroke:#1F3D81;stroke-width:7;stroke-miterlimit:10;}
	.st61{fill:#E41D20;stroke:#FFFFFF;stroke-width:8;stroke-linejoin:round;stroke-miterlimit:10;}
	.st62{fill:#FFFFFF;stroke:#8E8889;stroke-width:5;stroke-linecap:round;stroke-linejoin:round;stroke-miterlimit:10;}
	.st63{fill-rule:evenodd;clip-rule:evenodd;fill:none;stroke:#E41D20;stroke-width:5;stroke-miterlimit:10;}
	.st64{fill:#FFFFFF;stroke:#E41F21;stroke-width:5;stroke-linecap:round;stroke-linejoin:round;stroke-miterlimit:10;}
	.st65{fill:#38A863;}
	.st66{fill:none;stroke:#414244;stroke-width:5;stroke-linecap:round;stroke-linejoin:round;stroke-miterlimit:10;}
	.st67{fill:none;stroke:#8E8889;stroke-width:5;stroke-linecap:round;stroke-linejoin:round;stroke-miterlimit:10;}
	
		.st68{fill-rule:evenodd;clip-rule:evenodd;fill:none;stroke:#8E8889;stroke-width:5;stroke-linecap:round;stroke-linejoin:round;stroke-miterlimit:10;}
	.st69{fill:#FFFFFF;stroke:#E41F21;stroke-width:6;stroke-linecap:round;stroke-linejoin:round;stroke-miterlimit:10;}
	.st70{fill:none;stroke:#414244;stroke-width:12;stroke-linecap:round;stroke-linejoin:round;stroke-miterlimit:10;}
	.st71{fill:none;stroke:#8E8889;stroke-width:12;stroke-linecap:round;stroke-linejoin:round;stroke-miterlimit:10;}
	.st72{fill:none;stroke:#203C83;stroke-width:12;stroke-linecap:round;stroke-linejoin:round;stroke-miterlimit:10;}
	.st73{fill:none;stroke:#E41D20;stroke-width:12;stroke-linecap:round;stroke-linejoin:round;stroke-miterlimit:10;}
	
		.st74{fill-rule:evenodd;clip-rule:evenodd;fill:none;stroke:#414244;stroke-width:12;stroke-linecap:round;stroke-linejoin:round;stroke-miterlimit:10;}
	.st75{fill:none;stroke:#414244;stroke-width:10;stroke-linecap:round;stroke-linejoin:round;stroke-miterlimit:10;}
	
		.st76{fill-rule:evenodd;clip-rule:evenodd;fill:none;stroke:#414244;stroke-width:10;stroke-linecap:round;stroke-linejoin:round;stroke-miterlimit:10;}
</style>
<g>
	<path class="st71" d="M307.26,224.83h30.83c34.37,0,62.24-27.86,62.24-62.24c0-34.37-27.86-62.24-62.24-62.24
		c-6.16,0-12.11,0.91-17.73,2.58c-13.12-27.99-41.55-47.39-74.51-47.39c-29.92,0-56.11,15.98-70.5,39.87
		c-8.26-3.74-17.43-5.83-27.09-5.83c-26.33,0-49.04,15.49-59.53,37.86c-4.49-1.33-9.24-2.06-14.16-2.06
		c-27.46,0-49.72,22.26-49.72,49.72s22.26,49.72,49.72,49.72c0,0,10.49,0,40.83,0"/>
</g>
<line class="st72" x1="24.86" y1="288" x2="179.32" y2="288"/>
<line class="st73" x1="245.25" y1="288" x2="399.71" y2="288"/>
<path class="st76" d="M274.58,152.6c-1.02-1.76-3.27-2.71-5.32-2.04l-8.49,2.8c-1.87,0.76-4.57-0.17-5.93-1.64l-6.03-6.1
	c-1.44-1.28-2.25-4.05-1.46-5.92l3.13-8.4c0.61-1.95-0.17-4.27-1.97-5.26l-16.66-7.09c-1.95-0.61-4.16,0.44-5.15,2.23l-3.88,8.08
	c-0.98,1.79-3.35,3.21-5.28,3.06l-8.57-0.11c-2,0.03-4.36-1.19-5.3-3.14l-3.87-8.06c-0.75-1.87-3.19-2.9-5.16-2.42
	c0,0-4.67,1.11-8.67,2.72c-4,1.61-8.14,4.06-8.14,4.06c-1.76,1.02-2.72,3.26-2.04,5.32l2.8,8.48c0.75,1.87-0.17,4.57-1.64,5.93
	l-6.1,6.03c-1.28,1.45-4.05,2.26-5.93,1.46l-8.39-3.13c-1.95-0.61-4.27,0.17-5.25,1.96l-7.09,16.66c-0.61,1.95,0.44,4.16,2.23,5.15
	l8.08,3.88c1.79,0.98,3.21,3.36,3.06,5.28l-0.11,8.57c0.03,2-1.19,4.36-3.14,5.3l-8.05,3.87c-1.87,0.75-2.9,3.19-2.42,5.16
	c0,0,1.11,4.67,2.72,8.67c1.61,4,4.05,8.14,4.05,8.14c1.02,1.76,3.27,2.72,5.32,2.04l8.49-2.8c1.87-0.75,4.57,0.17,5.93,1.64
	l6.03,6.1c1.45,1.28,2.25,4.05,1.46,5.92l-3.13,8.4c-0.61,1.95,0.17,4.27,1.97,5.26l16.66,7.09c1.95,0.61,4.17-0.44,5.15-2.23
	l3.88-8.08c0.98-1.79,3.36-3.21,5.28-3.06l8.57,0.11c2-0.03,4.36,1.19,5.3,3.14l3.87,8.06c0.75,1.87,3.19,2.9,5.16,2.42
	c0,0,4.67-1.11,8.67-2.72c4-1.61,8.14-4.06,8.14-4.06c1.76-1.02,2.71-3.27,2.04-5.32l-2.8-8.49c-0.75-1.87,0.18-4.57,1.64-5.93
	l6.1-6.03c1.28-1.45,4.05-2.26,5.93-1.46l8.39,3.13c1.95,0.61,4.27-0.17,5.26-1.96l7.09-16.66c0.61-1.95-0.44-4.16-2.23-5.15
	l-8.08-3.88c-1.79-0.99-3.21-3.36-3.06-5.28l0.11-8.57c-0.03-2,1.19-4.36,3.14-5.3l8.06-3.87c1.87-0.75,2.9-3.19,2.42-5.16
	c0,0-1.11-4.67-2.72-8.67C277.02,156.73,274.58,152.6,274.58,152.6L274.58,152.6z M223.81,214.79c-15.21,6.13-32.43-1.19-38.56-16.4
	c-6.13-15.21,1.19-32.43,16.4-38.56c15.21-6.13,32.43,1.19,38.56,16.4C246.34,191.43,239.02,208.66,223.81,214.79L223.81,214.79z"/>
</svg>
